<?xml version="1.0" standalone="no"?>
<!DOCTYPE svg PUBLIC "-//W3C//DTD SVG 1.1//EN" "http://www.w3.org/Graphics/SVG/1.1/DTD/svg11.dtd"><svg xmlns="http://www.w3.org/2000/svg" style="background-color:#FFF" width="300" height="300"><path stroke="black" fill="none" stroke-width="1" d="M85.131, 164.365L85.62, 164.8L86.526, 165.644L87.543, 166.212L88.66, 166.53L89.87, 166.62L93.92, 166.34L95.729, 166.18L97.501, 166.27L99.245, 166.585L100.97, 167.1L102.154, 167.786L103.03, 168.84L103.714, 170.15L104.21, 171.519L104.85, 174.37L105.272, 177.368L105.485, 180.376L105.37, 186.42L105.343, 187.624L105.36, 189.03L106.346, 187.96L106.8, 186.8L107.178, 183.095L107.208, 179.41L106.783, 175.755L105.8, 172.14L104.38, 168.98L103.96, 168.13L103.94, 167.596L104.1, 167.16L104.558, 166.95L105.06, 166.98L107.53, 168.41L109.79, 169.69L111.356, 170.56L112.596, 171.687L113.479, 173.096L113.97, 174.81L114.414, 180.169L114.16, 185.55L113.871, 189.667L113.71, 193.8L113.796, 194.536L114.1, 195.28L114.46, 194.56L115.39, 191.277L116.131, 187.959L116.605, 184.594L116.73, 181.17L116.466, 177.889L115.73, 174.69L114.57, 172.2L114.366, 171.58L114.59, 170.99L115.173, 170.706L115.8, 170.88L117.27, 171.9L119.769, 173.934L122.59, 175.51L124.735, 176.809L126.55, 178.55L127.538, 180.051L128.141, 181.672L128.439, 183.387L128.51, 185.17L128.267, 187.918L127.594, 190.514L126.506, 192.965L125.02, 195.28L123.155, 197.691L121.02, 199.87L119.87, 201.227L119.541, 202.044L119.41, 202.96L119.449, 203.515L119.619, 203.826L119.951, 203.915L120.48, 203.8L122.32, 203.001L123.127, 202.412L123.83, 201.64L126.883, 197.068L128.102, 194.62L128.99, 192L129.65, 187.88L129.92, 184.42L130.073, 183.718L130.6, 183.27L131.299, 183.345L131.81, 183.84L132.74, 185.09L133.73, 186.11L135.425, 187.644L136.908, 189.332L138.132, 191.212L139.05, 193.32L141.9, 201.83L142.414, 204.05L142.666, 206.307L142.655, 208.578L142.38, 210.84L141.764, 213.7L140.81, 216.47L139.686, 218.591L138.265, 220.421L136.529, 221.953L134.46, 223.18L132.754, 223.811L131.061, 224.044L129.348, 223.862L127.58, 223.25L123.893, 221.125L120.43, 218.7L119.496, 217.892L118.696, 216.926L117.27, 214.71L118.44, 214.57L122.51, 214.55L125.616, 214.481L128.7, 214.09L130.765, 213.554L132.621, 212.729L134.262, 211.549L135.68, 209.95L137.43, 206.95L138.23, 205.69L138.56, 204.97L138.63, 204.567L138.73, 204.21L137.061, 206.17L135.52, 208.25L133.628, 210.22L132.522, 210.984L131.27, 211.59L128.208, 212.455L125.04, 212.81L120.97, 212.83L117.03, 213.09L116.098, 213.013L115.42, 212.41L113.96, 210.36L113.407, 209.409L113.201, 208.434L113.298, 207.442L113.65, 206.44L115.97, 201.71L119.58, 194.96L120.589, 192.964L121.332, 190.904L121.81, 188.796L122.028, 186.659L121.987, 184.51L121.692, 182.367L121.145, 180.248L120.35, 178.17L120.202, 177.82L119.95, 177.294L119.638, 176.841L119.31, 176.71L119.152, 176.953L119.129, 177.461L119.355, 178.936L119.723, 180.466L119.878, 181.042L119.97, 181.38L120.344, 183.507L120.464, 185.672L120.312, 187.835L119.87, 189.95L119.118, 192.019L118.17, 194.02L112.55, 204.99L111.66, 206.93L111.14, 206.36L108.47, 202.53L108.01, 201.741L107.835, 200.942L108.1, 199.28L109.38, 195.3L110.634, 190.492L111.154, 185.531L110.937, 180.55L109.98, 175.68L109.921, 175.474L109.799, 175.068L109.438, 173.946L109.035, 172.894L108.862, 172.575L108.73, 172.49L108.6, 172.919L108.639, 173.707L108.743, 174.515L108.81, 175L109.34, 180.03L109.514, 184.664L109.043, 189.219L108.08, 193.711L106.78, 198.16L106.42, 198.92L106.11, 198.64L100.6, 190.52L100.244, 189.868L100.086, 189.217L100.33, 187.84L100.886, 186.241L101.214, 184.757L101.285, 181.95L100.741, 179.045L100.3, 177.44L99.78, 175.67L99.699, 175.417L99.551, 174.99L99.12, 173.895L98.621, 172.95L98.389, 172.711L98.19, 172.72L98.202, 173.046L98.368, 173.805L98.644, 174.882L98.985, 176.162L99.692, 178.877L99.97, 180.081L100.14, 181.03L100.158, 182.583L99.881, 184.219L99.374, 185.838L98.7, 187.34L94.889, 181.394L92.846, 178.507L90.53, 175.89L89.055, 174.446L87.49, 173.1L87.475, 173.559L87.64, 174.01L88.532, 175.607L89.573, 177.11L91.82, 180L94.034, 183.251L96.15, 186.57L101.4, 194.57L101.6, 195.07L99.22, 194.9L90.41, 194.13L88.56, 193.771L86.792, 193.136L83.43, 191.43L80.48, 189.862L77.38, 188.64L77.07, 188.69L77.19, 189L78.952, 190.512L80.839, 191.863L82.836, 193.044L84.93, 194.05L87.121, 194.884L89.38, 195.53L91.656, 195.908L93.94, 196.12L98.84, 196.55L102.07, 196.72L102.688, 196.856L103.17, 197.3L107.96, 204.66L106.66, 204.78L97.7, 205.23L93.729, 205.271L91.761, 205.108L89.81, 204.75L83.2, 203.16L82.858, 203.068L82.29, 202.912L80.794, 202.556L79.348, 202.382L78.843, 202.454L78.59, 202.68L78.838, 202.952L79.602, 203.336L80.724, 203.787L82.045, 204.265L84.645, 205.127L85.607, 205.426L86.13, 205.58L89.309, 206.312L92.543, 206.779L95.802, 206.951L99.06, 206.8L103.653, 206.459L108.26, 206.41L108.959, 206.501L109.53, 206.93L111.604, 209.891L113.79, 213.01L113, 213.049L112.36, 213.05L110.645, 213.062L108.971, 213.288L105.68, 214.17L101.345, 215.546L96.92, 216.6L94.448, 216.915L91.96, 217.02L87.27, 216.75L83.79, 216.63L83.358, 216.598L82.723, 216.561L82.105, 216.586L81.73, 216.74L81.948, 216.915L82.563, 217.138L83.226, 217.333L83.59, 217.43L87.06, 218.17L89.608, 218.545L92.146, 218.709L94.686, 218.616L97.24, 218.22L102.079, 216.98L106.85, 215.5L110.506, 214.759L114.29, 214.76L114.238, 214.885L114.126, 215.217L113.798, 216.244L113.458, 217.321L113.331, 217.716L113.26, 217.93L111.85, 221.08L110.586, 223.235L109.081, 225.31L107.323, 227.152L105.3, 228.61L100.24, 231.47L100.966, 231.248L101.73, 231.1L103.41, 230.58L106.5, 229.46L107.576, 228.953L108.54, 228.25L110.1, 226.51L112.48, 223.249L113.506, 221.519L114.35, 219.68L115.38, 216.75L115.566, 216.239L115.82, 215.57L116.806, 216.881L117.65, 218.11L120.69, 223.53L122.14, 226.872L122.87, 230.44L122.906, 231.7L122.71, 232.93L122.105, 234.7L121.313, 236.376L120.314, 237.926L119.09, 239.32L116.845, 241.121L114.38, 242.365L111.69, 243.024L108.77, 243.07L104.498, 242.462L100.39, 241.27L96.065, 239.394L91.83, 237.3L88.853, 235.646L85.95, 233.85L82.735, 231.57L79.82, 228.9L79.429, 228.369L79.48, 227.74L80.009, 227.37L80.65, 227.48L81.995, 227.847L83.356, 227.991L86.1, 227.91L91.319, 227.305L96.44, 226.1L100.503, 224.514L102.397, 223.458L104.19, 222.2L104.47, 221.98L104.923, 221.505L105.018, 221.218L104.94, 220.88L104.474, 220.542L103.88, 220.61L96.55, 222.31L91.521, 223.381L86.41, 223.83L81.04, 223.87L79.569, 223.729L78.238, 223.277L77.029, 222.559L75.93, 221.62L74.981, 220.549L74.19, 219.35L68.83, 209.47L68.62, 209.04L68.45, 208.47L68.67, 207.93L69.264, 207.67L69.88, 207.86L71.22, 208.64L72.719, 209.557L74.309, 210.209L77.69, 210.9L87.45, 211.86L91.21, 212.51L93.127, 212.661L94.961, 212.401L96.73, 211.828L98.45, 211.04L98.803, 210.67L98.93, 210.21L98.661, 209.789L98.22, 209.54L95.37, 209.31L90.59, 209.33L87.01, 209.37L83.724, 209.395L80.46, 209L78.03, 208.66L75.63, 208.23L72.806, 207.295L70.02, 206.21L69.169, 205.565L68.7, 204.59L68.01, 201.81L67.06, 197.74L66.29, 194.24L66.18, 193.41L66.238, 192.584L66.419, 192.239L66.79, 191.99L67.549, 192.012L68.15, 192.5L70.801, 194.866L73.765, 196.621L76.984, 197.876L80.4, 198.74L90.28, 200.5L92.939, 200.835L94.289, 200.818L95.65, 200.54L95.213, 200.051L94.61, 199.9L88.7, 198.44L81.56, 196.48L77.604, 194.954L73.79, 193.09L70.42, 191.28L69.367, 190.506L68.774, 189.662L68.599, 188.65L68.8, 187.37L70.85, 179.88L71.58, 177.99L72.24, 177.142L73.003, 176.82L73.799, 177.031L74.56, 177.78L75.58, 179.54L76.412, 180.997L77.399, 182.312L78.571, 183.475L79.96, 184.47L83.205, 186.604L84.865, 187.607L86.63, 188.43L89.59, 189.35L90.463, 189.447L91.35, 189.26L91.11, 188.657L90.63, 188.34L83.32, 183.78L81.01, 181.9L77.83, 179.01L77.024, 177.985L76.39, 176.84L76.077, 175.912L75.999, 174.975L76.166, 174.053L76.59, 173.17L78.86, 170.26L81.92, 167.4L83.83, 164.98L84.257, 164.475L84.684, 164.264Z"/></svg>