<?xml version="1.0" encoding="UTF-8"?>
<svg xmlns="http://www.w3.org/2000/svg" xmlns:xlink="http://www.w3.org/1999/xlink" width="700px" height="700px" viewBox="0 0 700 700" version="1.1">
<g id="surface1">
<path style="fill:none;stroke-width:1;stroke-linecap:butt;stroke-linejoin:miter;stroke:rgb(0%,0%,0%);stroke-opacity:1;stroke-miterlimit:4;" d="M 85.131696 164.365513 L 85.620536 164.800781 L 86.526228 165.644531 L 87.542411 166.212054 L 88.660714 166.530134 L 89.86942 166.620536 L 93.920759 166.339286 L 95.728795 166.180246 L 97.501674 166.270647 L 99.24442 166.585379 L 100.970424 167.09933 L 102.154018 167.785714 L 103.029576 168.840402 L 103.714286 170.149554 L 104.209821 171.518973 L 104.84933 174.369978 L 105.271205 177.368304 L 105.485491 180.376674 L 105.369978 186.420201 L 105.343192 187.623884 L 105.359933 189.030134 L 106.345982 187.960379 L 106.799665 186.800223 L 107.178013 183.095424 L 107.208147 179.410714 L 106.782924 175.754464 L 105.800223 172.140067 L 104.38058 168.979353 L 103.960379 168.13058 L 103.94029 167.59654 L 104.09933 167.159598 L 104.558036 166.950335 L 105.060268 166.980469 L 107.529576 168.410156 L 109.789621 169.689174 L 111.356585 170.55971 L 112.595424 171.686384 L 113.479353 173.095982 L 113.969866 174.810268 L 114.413504 180.169085 L 114.160714 185.549665 L 113.871094 189.666295 L 113.710379 193.799665 L 113.795759 194.536272 L 114.100446 195.279576 L 114.460379 194.55971 L 115.389509 191.276786 L 116.131138 187.958705 L 116.604911 184.59375 L 116.730469 181.170201 L 116.46596 177.888951 L 115.729353 174.689732 L 114.569196 172.200335 L 114.366629 171.579241 L 114.589286 170.989955 L 115.173549 170.705357 L 115.799665 170.879464 L 117.269531 171.90067 L 119.768973 173.93471 L 122.589844 175.510045 L 124.734375 176.809152 L 126.550781 178.550223 L 127.538504 180.050223 L 128.141183 181.672433 L 128.439174 183.386719 L 128.509487 185.169643 L 128.266741 187.918527 L 127.59375 190.513393 L 126.50558 192.964286 L 125.020647 195.279576 L 123.155692 197.69029 L 121.019531 199.869978 L 119.86942 201.227679 L 119.541295 202.044643 L 119.410714 202.960379 L 119.449219 203.514509 L 119.618304 203.825893 L 119.951451 203.914621 L 120.480469 203.800781 L 122.320312 203.000558 L 123.127232 202.411272 L 123.830357 201.639509 L 126.882254 197.067522 L 128.102679 194.619978 L 128.989955 192 L 129.649554 187.880022 L 129.920759 184.419643 L 130.073103 183.718192 L 130.600446 183.269531 L 131.298549 183.344866 L 131.810826 183.840402 L 132.739955 185.089286 L 133.729353 186.110491 L 135.425223 187.643973 L 136.908482 189.331473 L 138.132254 191.211496 L 139.049665 193.319196 L 141.90067 201.830357 L 142.414621 204.050223 L 142.665737 206.30692 L 142.655692 208.578683 L 142.379464 210.840402 L 141.763393 213.699777 L 140.810826 216.470424 L 139.685826 218.591518 L 138.264509 220.421317 L 136.52846 221.953125 L 134.459263 223.180246 L 132.753348 223.811384 L 131.060826 224.044085 L 129.348214 223.861607 L 127.580357 223.250558 L 123.892299 221.124442 L 120.430246 218.700335 L 119.496094 217.891741 L 118.695871 216.925781 L 117.269531 214.709263 L 118.439732 214.570312 L 122.509487 214.550223 L 125.616629 214.481585 L 128.700335 214.089844 L 130.764509 213.554129 L 132.621094 212.728795 L 134.261719 211.548549 L 135.679688 209.949777 L 137.430804 206.949777 L 138.229353 205.689174 L 138.560826 204.969308 L 138.629464 204.567522 L 138.729911 204.209263 L 137.060826 206.169643 L 135.520647 208.250558 L 133.627232 210.219308 L 132.522321 210.984375 L 131.270089 211.590402 L 128.208147 212.454241 L 125.040737 212.810826 L 120.969308 212.829241 L 117.030134 213.090402 L 116.097656 213.013393 L 115.419643 212.410714 L 113.959821 210.359933 L 113.407366 209.40904 L 113.201451 208.43471 L 113.298549 207.441964 L 113.650112 206.439174 L 115.970424 201.709821 L 119.579799 194.959821 L 120.589286 192.964286 L 121.332589 190.90346 L 121.80971 188.795759 L 122.027344 186.659598 L 121.987165 184.510045 L 121.692522 182.367188 L 121.145089 180.247768 L 120.349888 178.170201 L 120.202567 177.820312 L 119.949777 177.294643 L 119.638393 176.84096 L 119.310268 176.710379 L 119.151228 176.953125 L 119.129464 177.460379 L 119.355469 178.935268 L 119.723772 180.465402 L 119.87779 181.041295 L 119.969866 181.379464 L 120.343192 183.507254 L 120.463728 185.671875 L 120.311384 187.834821 L 119.86942 189.949219 L 119.117746 192.018415 L 118.170201 194.020647 L 112.550223 204.989397 L 111.659598 206.929688 L 111.140625 206.360491 L 108.470424 202.530134 L 108.010045 201.741629 L 107.834263 200.941406 L 108.100446 199.280692 L 109.379464 195.299665 L 110.633371 190.491629 L 111.154018 185.53125 L 110.936384 180.550781 L 109.980469 175.680804 L 109.920201 175.473214 L 109.799665 175.06808 L 109.438058 173.946429 L 109.034598 172.893415 L 108.862165 172.575335 L 108.729911 172.489955 L 108.59933 172.918527 L 108.639509 173.707031 L 108.743304 174.515625 L 108.810268 174.999442 L 109.339286 180.030134 L 109.513393 184.664062 L 109.042969 189.219308 L 108.080357 193.710938 L 106.779576 198.160714 L 106.419643 198.920759 L 106.109933 198.639509 L 100.600446 190.520089 L 100.243862 189.867188 L 100.086496 189.217634 L 100.329241 187.839844 L 100.886719 186.241071 L 101.21317 184.757812 L 101.285156 181.950335 L 100.741071 179.045759 L 100.300781 177.44029 L 99.780134 175.670759 L 99.699777 175.416295 L 99.550781 174.989397 L 99.120536 173.894531 L 98.621652 172.950335 L 98.388951 172.710938 L 98.189732 172.719308 L 98.201451 173.045759 L 98.367188 173.805804 L 98.643415 174.882254 L 98.984933 176.161272 L 99.691406 178.876674 L 99.969308 180.080357 L 100.140067 181.029576 L 100.158482 182.583147 L 99.88058 184.21875 L 99.373326 185.837612 L 98.700335 187.339286 L 94.888393 181.394531 L 92.845982 178.506696 L 90.530692 175.890067 L 89.055804 174.445312 L 87.490513 173.09933 L 87.475446 173.55971 L 87.639509 174.010045 L 88.531808 175.607143 L 89.573103 177.110491 L 91.819754 180 L 94.034598 183.251116 L 96.15067 186.569196 L 101.40067 194.569754 L 101.599888 195.070312 L 99.219308 194.899554 L 90.410156 194.129464 L 88.560268 193.771205 L 86.792411 193.136719 L 83.430804 191.430804 L 80.479353 189.862165 L 77.38058 188.640067 L 77.069196 188.69029 L 77.189732 189 L 78.952567 190.511719 L 80.839286 191.862723 L 82.836496 193.044643 L 84.930804 194.050781 L 87.120536 194.884487 L 89.38058 195.530692 L 91.655692 195.907366 L 93.939174 196.119978 L 98.839286 196.550223 L 102.070312 196.719308 L 102.688058 196.856585 L 103.170201 197.300223 L 107.959821 204.659598 L 106.660714 204.780134 L 97.699219 205.230469 L 93.728237 205.270647 L 91.761161 205.108259 L 89.810826 204.75 L 83.199777 203.159598 L 82.858259 203.067522 L 82.290737 202.91183 L 80.794085 202.555246 L 79.347656 202.382812 L 78.84375 202.454799 L 78.589286 202.680804 L 78.838728 202.952009 L 79.602121 203.335379 L 80.723772 203.787388 L 82.044643 204.264509 L 84.644531 205.126674 L 85.607143 205.426339 L 86.129464 205.580357 L 89.308594 206.311942 L 92.542969 206.779018 L 95.802455 206.951451 L 99.060268 206.800781 L 103.652344 206.459263 L 108.259487 206.410714 L 108.959263 206.501116 L 109.530134 206.929688 L 111.604353 209.891183 L 113.790737 213.010045 L 113.000558 213.048549 L 112.359375 213.050223 L 110.645089 213.061942 L 108.970982 213.287946 L 105.679688 214.170201 L 101.345424 215.546317 L 96.920759 216.59933 L 94.448103 216.915737 L 91.960379 217.019531 L 87.269531 216.75 L 83.790737 216.629464 L 83.358817 216.597656 L 82.722656 216.560826 L 82.104911 216.585938 L 81.729911 216.739955 L 81.947545 216.915737 L 82.563616 217.138393 L 83.226562 217.332589 L 83.589844 217.429688 L 87.060268 218.169643 L 89.608259 218.544643 L 92.146205 218.708705 L 94.685826 218.616629 L 97.240513 218.219866 L 102.078683 216.979353 L 106.849888 215.499442 L 110.506138 214.759487 L 114.289621 214.759487 L 114.237723 214.885045 L 114.125558 215.216518 L 113.797433 216.24442 L 113.457589 217.320871 L 113.330357 217.71596 L 113.260045 217.930246 L 111.850446 221.079241 L 110.586496 223.235491 L 109.081473 225.30971 L 107.323661 227.151228 L 105.299665 228.609375 L 100.240513 231.470424 L 100.965402 231.247768 L 101.730469 231.100446 L 103.409598 230.579799 L 106.5 229.459821 L 107.576451 228.952567 L 108.540737 228.249442 L 110.09933 226.510045 L 112.479911 223.248884 L 113.506138 221.519531 L 114.349888 219.679688 L 115.379464 216.75 L 115.56529 216.239397 L 115.819754 215.569754 L 116.805804 216.88058 L 117.649554 218.109375 L 120.689732 223.530134 L 122.139509 226.871652 L 122.86942 230.439174 L 122.90625 231.699777 L 122.710379 232.930246 L 122.104353 234.699777 L 121.3125 236.375558 L 120.314732 237.925781 L 119.089286 239.320312 L 116.844308 241.121652 L 114.380022 242.365513 L 111.689732 243.023438 L 108.770089 243.070312 L 104.497768 242.462612 L 100.389509 241.270647 L 96.06529 239.393973 L 91.829799 237.299665 L 88.853237 235.645647 L 85.950335 233.84933 L 82.734375 231.569196 L 79.819754 228.90067 L 79.429688 228.368304 L 79.479911 227.740513 L 80.008929 227.370536 L 80.650112 227.479353 L 81.99442 227.847656 L 83.355469 227.991629 L 86.09933 227.909598 L 91.319196 227.305246 L 96.44029 226.099888 L 100.503348 224.514509 L 102.396763 223.458147 L 104.189732 222.199219 L 104.469308 221.979911 L 104.922991 221.504464 L 105.018415 221.218192 L 104.939732 220.880022 L 104.47433 220.541853 L 103.880022 220.610491 L 96.550781 222.30971 L 91.521763 223.381138 L 86.410714 223.829799 L 81.040179 223.869978 L 79.568638 223.729353 L 78.237723 223.277344 L 77.029018 222.559152 L 75.930804 221.619978 L 74.981585 220.548549 L 74.189732 219.349888 L 68.829241 209.469308 L 68.619978 209.040737 L 68.449219 208.469866 L 68.670201 207.930804 L 69.264509 207.669643 L 69.88058 207.860491 L 71.219866 208.640625 L 72.718192 209.556362 L 74.308594 210.209263 L 77.69029 210.90067 L 87.450335 211.859933 L 91.210379 212.509487 L 93.127232 212.66183 L 94.960379 212.40067 L 96.729911 211.828125 L 98.449219 211.039621 L 98.802455 210.669643 L 98.929688 210.209263 L 98.66183 209.789062 L 98.219866 209.539621 L 95.370536 209.310268 L 90.589286 209.330357 L 87.010045 209.370536 L 83.723772 209.395647 L 80.459263 209.000558 L 78.030134 208.660714 L 75.629464 208.230469 L 72.805246 207.294643 L 70.019531 206.209821 L 69.169085 205.56529 L 68.700335 204.589286 L 68.010603 201.810268 L 67.05971 197.740513 L 66.289621 194.239955 L 66.180804 193.409598 L 66.237723 192.584263 L 66.418527 192.239397 L 66.790179 191.989955 L 67.548549 192.011719 L 68.149554 192.500558 L 70.801339 194.866071 L 73.764509 196.620536 L 76.983817 197.876116 L 80.40067 198.739955 L 90.279576 200.499442 L 92.939732 200.834263 L 94.289062 200.817522 L 95.650112 200.539621 L 95.21317 200.050781 L 94.610491 199.900112 L 88.699219 198.44029 L 81.560826 196.479911 L 77.603237 194.954799 L 73.789621 193.089844 L 70.419643 191.280134 L 69.366629 190.506696 L 68.773996 189.661272 L 68.598214 188.650112 L 68.800781 187.36942 L 70.849888 179.879464 L 71.579799 177.989397 L 72.239397 177.142299 L 73.00279 176.819196 L 73.799665 177.031808 L 74.55971 177.780134 L 75.579241 179.539621 L 76.411272 180.997768 L 77.398996 182.311942 L 78.570871 183.475446 L 79.960379 184.469866 L 83.204799 186.604353 L 84.865513 187.607143 L 86.630022 188.430804 L 89.589844 189.349888 L 90.463728 189.446987 L 91.34933 189.259487 L 91.109933 188.656808 L 90.629464 188.340402 L 83.320312 183.780134 L 81.010045 181.900112 L 77.829241 179.010603 L 77.023996 177.984375 L 76.389509 176.839286 L 76.076451 175.91183 L 75.999442 174.97433 L 76.165179 174.053571 L 76.590402 173.169643 L 78.860491 170.260045 L 81.920759 167.40067 L 83.829241 164.979911 L 84.257812 164.47433 L 84.68471 164.263393 Z M 85.131696 164.365513 " transform="matrix(2.333333,0,0,2.333333,0,0)"/>
</g>
</svg>
