<?xml version="1.0" encoding="utf-8"?>
<!-- Generator: Adobe Illustrator 25.2.0, SVG Export Plug-In . SVG Version: 6.00 Build 0)  -->
<svg version="1.1" id="Layer_2" xmlns="http://www.w3.org/2000/svg" xmlns:xlink="http://www.w3.org/1999/xlink" x="0px" y="0px"
	 viewBox="0 0 300 300" style="enable-background:new 0 0 300 300;" xml:space="preserve">
<style type="text/css">
	.st0{fill:#2D513E;}
</style>
<g>
	<path class="st0" d="M209.54,141.78c0.49,0.69,1.1,0.6,1.62,0.54c1.3-0.16,2.6-0.38,3.89-0.63c2.82-0.54,5.6-1.3,8.44-1.64
		c2.94-0.34,5.81-1,8.72-1.42c5.26-0.76,9.43,1.18,12.72,5.25c1.39,1.73,2.29,3.74,3.23,5.72c1.7,3.61,2.65,7.42,3.05,11.38
		c0.19,1.86,0.54,3.71,0.82,5.56c0.04,0.24,0.1,0.48,0.09,0.71c-0.04,0.64-0.53,0.91-1.08,0.6c-0.24-0.13-0.45-0.33-0.65-0.52
		c-0.38-0.35-0.77-0.7-1.12-1.08c-1.63-1.76-3.48-3.16-5.86-3.75c-0.41-0.1-0.79-0.37-1.17-0.59c-3.54-2.1-7.35-3.44-11.37-4.23
		c-0.86-0.17-1.74-0.31-2.61-0.33c-4.71-0.13-9.42-0.23-14.13-0.33c-1.07-0.02-2.12,0.11-3.32,0.73c0.61,0.39,1.04,0.73,1.52,0.95
		c0.61,0.28,1.26,0.49,1.91,0.68c3.82,1.1,7.54,2.52,11.45,3.39c4.01,0.89,7.8,2.53,11.39,4.57c0.24,0.14,0.47,0.3,0.73,0.42
		c2.89,1.3,5.07,3.5,6.97,5.91c1.99,2.51,4.16,4.84,6.24,7.26c2.13,2.48,3.43,5.26,3.37,8.59c-0.05,2.67,0.22,5.35-0.26,8.01
		c-0.01,0.08-0.01,0.16-0.03,0.24c-1.32,3.98-1.51,8.22-2.69,12.23c-0.75,2.56-1.6,5.09-2.41,7.64c-0.28,0.87-0.59,1.74-0.85,2.62
		c-0.11,0.39-0.14,0.87-0.67,0.82c-0.62-0.05-0.52-0.59-0.54-1.02c-0.07-1.87-0.08-3.75-0.25-5.62c-0.12-1.3-0.35-2.62-0.74-3.86
		c-0.66-2.09-1.36-4.18-2.26-6.18c-2.58-5.76-6.75-9.99-12.54-12.6c-2.86-1.29-5.86-2.06-8.94-2.55c-1.01-0.16-2.07-0.15-3.1-0.07
		c-1.05,0.08-1.3,0.69-0.55,1.4c1.07,1,2.22,1.94,3.45,2.75c1.46,0.97,3.04,1.75,4.55,2.65c3.9,2.32,7.31,5.25,10.58,8.37
		c2.79,2.67,4.76,5.88,6.44,9.29c1.12,2.27,1.57,4.76,2.11,7.21c0.34,1.54,0.03,3.04-0.87,4.34c-0.68,0.98-1.39,1.96-2.2,2.83
		c-4.13,4.38-8.32,8.71-12.43,13.11c-0.83,0.89-1.48,1.98-2.11,3.04c-0.26,0.45-0.27,1.06-0.33,1.61c-0.05,0.42-0.01,0.86-0.01,1.23
		c-0.79,0.41-1.06-0.11-1.32-0.54c-0.91-1.53-2.07-2.83-3.41-3.99c-1.49-1.29-3.14-2.33-5-2.99c-3.94-1.4-7.91-2.73-11.84-4.16
		c-4.09-1.49-8.23-2.76-12.47-3.74c-0.62-0.14-1.24-0.31-1.84-0.52c-3.59-1.23-5.9-4.56-6-8.38c-0.15-5.59,0.59-11.05,2.17-16.42
		c1.24-4.21,2.31-8.46,3.43-12.7c0.59-2.23,1.11-4.48,1.67-6.73c0.29-1.17,0.47-2.35,0.17-3.55c-0.27-1.11-0.8-1.32-1.68-0.58
		c-2.13,1.79-3.87,3.9-5.14,6.4c-2.17,4.28-3.47,8.81-3.99,13.58c-0.25,2.26-0.7,4.51-0.48,6.79c0.29,3.1,0.63,6.19,1.03,9.27
		c0.21,1.6,0.92,3.04,1.73,4.43c0.34,0.58,0.63,1.2,0.88,1.83c0.07,0.17-0.02,0.51-0.16,0.63c-0.14,0.11-0.48,0.13-0.65,0.03
		c-3.75-2.25-8.06-3.24-11.86-5.37c-1.77-0.99-3.58-1.95-5.23-3.12c-2.86-2.02-4.29-4.97-4.88-8.35c-0.45-2.59-0.22-5.14,0.34-7.71
		c0.73-3.33,1.86-6.51,3.21-9.63c1.61-3.73,3.18-7.49,4.86-11.19c0.57-1.26,1.43-2.39,2.18-3.56c1.41-2.22,2.83-4.43,4.28-6.71
		c-0.43-0.45-0.96-0.54-1.58-0.41c-1.59,0.33-2.6,1.49-3.64,2.59c-1.46,1.55-2.51,3.4-3.57,5.23c-0.78,1.35-1.57,2.69-2.27,4.08
		c-2.32,4.55-3.94,9.35-4.58,14.41c-0.53,4.17-0.46,8.36,0.38,12.51c0.07,0.35,0.13,0.71,0.1,1.07c-0.04,0.53-0.53,0.73-0.94,0.4
		c-0.24-0.2-0.43-0.47-0.59-0.74c-1.34-2.23-3.15-3.97-5.24-5.51c-2.67-1.96-5.13-4.18-7.17-6.83c-1.6-2.08-2.44-4.46-2.77-7.04
		c-0.23-1.78-0.5-3.57-0.01-5.35c0.16-0.58,0.28-1.19,0.56-1.7c0.46-0.84,0.18-1.46-0.29-2.17c-1.2-1.83-2.39-3.68-3.47-5.59
		c-2.77-4.88-3.85-10.2-3.71-15.76c0.07-2.55,0.41-5.1,1.17-7.55c2.12-6.86,6.77-11.23,13.56-13.34c2.28-0.71,4.64-0.48,7-0.32
		c3.41,0.23,6.1,1.94,8.75,3.83c2.98,2.13,5.61,4.62,7.78,7.56c0.59,0.79,1.02,1.7,1.62,2.71c-0.37-0.03-0.58-0.04-0.78-0.07
		c-1.85-0.29-3.69-0.72-5.55-0.85c-3.02-0.22-6.06-0.38-9.09-0.3c-2.42,0.06-4.85,0.23-7.22,0.72c-2.46,0.51-4.58,1.47-6.75,2.7
		c-0.52,0.3-1.04,0.58-1.54,0.92c-0.24,0.16-1.44,1.31-1.69,1.19c0.2,0.08,0.42,0.04,0.63-0.01c2.57-0.62,4.88-2.01,7.42-2.75
		c1.43-0.41,2.9-0.61,4.38-0.74c1.44-0.12,2.87-0.28,4.32-0.34c4.35-0.17,8.7,0.09,13.01,0.7c0.86,0.12,1.71,0.39,2.55,0.62
		c1.34,0.37,2.44,1.03,3.23,2.27c0.57,0.89,1.45,1.58,2.19,2.36c0.3,0.31,0.59,0.63,1.01,1.07c-0.47,0.12-0.78,0.24-1.11,0.27
		c-2.85,0.33-5.5,1.35-8.06,2.53c-3.05,1.4-5.84,3.28-8.35,5.54c-1.89,1.71-3.73,3.47-5.36,5.42c-1.64,1.96-2.88,4.09-3.96,6.41
		c-0.89,1.94-1.65,3.97-2.32,5.98c-0.12,0.37-0.57,1.34-0.31,1.73c0.01,0.02,0.03,0.03,0.05,0.04c0.43,0.2,3.51-6.71,3.78-7.29
		c3.56-7.79,9.68-12.4,17.09-16.28c2.52-1.32,5.28-2.15,8.16-2.61c1.31-0.21,2.05,0.11,2.85,1.02c1.42,1.62,2.94,3.15,4.4,4.73
		c0.38,0.41,0.71,0.86,1.1,1.34c-0.26,0.2-0.46,0.38-0.68,0.53c-5.01,3.31-9.23,7.49-12.88,12.22c-2.01,2.61-3.66,5.73-4.51,8.92
		c-0.47,1.76-0.58,3.54-0.5,5.35c0.01,0.29,0.08,2.36,0.44,2.28c0.19-0.04,0.3-0.5,0.33-0.65c0.39-1.78,0.26-3.41,0.52-4.71
		c0.36-1.74,1.04-2.67,1.71-4.31c0.65-1.59,1.47-3.11,2.41-4.54c0.09-0.13,0.17-0.26,0.26-0.39c2.09-3.1,4.68-5.76,7.43-8.26
		c1.71-1.55,3.57-2.93,5.38-4.37c0.3-0.24,0.67-0.39,1.15-0.65c3.76,5.32,6.62,11.06,9.81,16.72c-0.62,0.83-1.25,1.65-1.86,2.48
		c-2.06,2.81-3.79,5.85-5.09,9.08c-1.37,3.39-2.63,7.27-2.83,10.95c-0.09,1.58,0.07,3.18,0.54,4.69c0.23,0.74,1.44,4.03,2.41,3.83
		c-0.08-0.63-0.46-1.21-0.65-1.82c-0.23-0.73-0.42-1.47-0.57-2.23c-0.63-3.24,0.08-6.12,0.87-9.31c1.41-5.7,3.95-10.85,7.55-15.47
		c0.14-0.18,0.31-0.33,0.51-0.54c0.17,0.25,0.32,0.44,0.42,0.65c1.8,3.51,3.67,7,5.38,10.55c2.29,4.76,3.82,9.8,5.29,14.86
		c0.48,1.64,1.08,3.25,1.77,4.82c0.74,1.67,1.42,3.32,2.75,4.62c1.28,1.26,2.89,2.31,4.4,3.27c0.13,0.08,0.76,0.58,0.94,0.48
		c-0.02,0.01-2.56-2.93-2.82-3.21c-1.02-1.11-2-2.27-2.73-3.6c-0.79-1.44-1.33-2.99-1.93-4.51c-0.67-1.7-1.15-3.48-1.66-5.24
		c-1.32-4.49-2.92-8.86-4.91-13.09c-0.12-0.25-0.2-0.52-0.3-0.78c-0.01-0.02,0.02-0.06,0.08-0.2c1.37,0.45,2.76,0.87,4.14,1.35
		c6.35,2.19,11.36,7.11,16.75,10.93c0.38,0.27,0.77,0.54,1.22,0.63c0.11,0.02,0.26,0.02,0.31-0.09c0.03-0.07-0.01-0.15-0.05-0.22
		c-1.21-2.08-3.25-3.64-5.07-5.16c-2.63-2.18-5.38-4.03-8.3-5.79c-1.8-0.92-3.73-1.6-5.63-2.31c-1.3-0.49-2.64-0.88-3.97-1.3
		c-0.52-0.16-0.88-0.46-1.15-0.95c-2.6-4.85-5.22-9.69-7.83-14.54c-0.03-0.06-0.03-0.15-0.07-0.35c1.18,0.28,2.36,0.44,3.45,0.83
		c2.31,0.83,4.71,1.18,7.11,1.58c3.41,0.57,6.92,0.98,10.16,2.19c3.22,1.2,5.38,2.29,8.54,4.09c0.7,0.4,2.13,1.23,2.92,1.43
		c0.16,0.04,0.38,0.03,0.4-0.13c0.01-0.06-0.03-0.12-0.07-0.18c-0.4-0.54-0.97-0.92-1.53-1.29c-2.82-1.84-5.77-3.49-8.9-4.75
		c-3.27-1.32-6.76-2.14-10.23-2.79c-0.33-0.06-0.65-0.12-0.98-0.18c-3.5-0.61-6.92-1.53-10.35-2.43c-1.34-0.35-2.31-1.05-2.98-2.34
		c-1.43-2.77-3.18-5.35-5.11-7.8c-0.69-0.87-1.43-1.7-2.28-2.69c0.69-0.11,1.28-0.27,1.88-0.29c3.07-0.15,6.14-0.02,9.2,0.29
		c1.34,0.13,2.71,0.14,4.06,0.03c1.65-0.13,3.28-0.07,4.88,0.26c4.97,1.01,9.74,2.5,14.86,2.04c-1.01-0.52-2.11-0.81-3.21-1.09
		c-3.45-0.9-6.91-1.79-10.43-2.36c-3.48-0.56-6.87-0.45-10.37-0.56c-2.79-0.09-5.58-0.25-8.37-0.29c-0.95-0.01-1.9,0.22-2.84,0.38
		c-0.81,0.14-1.42-0.03-1.99-0.72c-1.16-1.42-2.43-2.75-3.65-4.12c-0.13-0.15-0.23-0.31-0.41-0.55c0.76-0.2,1.44-0.38,2.12-0.57
		c2.93-0.82,5.7-2.04,8.45-3.31c6.05-2.78,12.42-4.54,18.96-5.63c2.84-0.47,5.73-0.48,8.6-0.21c2.57,0.25,5.14,0.55,7.69,0.95
		c2.54,0.4,5.05,1,7.6,1.32c0.06,0.01,0.6,0.11,0.63,0.03c0.11-0.35-4.27-1.7-4.61-1.82c-5.17-1.79-10.69-2.49-16.14-2.28
		c-1.17,0.04-2.33,0.13-3.49,0.28c-3.33,0.41-6.56,1.29-9.8,2.16c-4.02,1.08-7.83,2.68-11.64,4.33c-2.34,1.01-4.75,1.84-7.13,2.74
		c-0.22,0.08-0.46,0.15-0.69,0.18c-2.15,0.28-2.54,0.5-3.7-1.87c0.4-0.21,0.81-0.43,1.22-0.63c2.12-1.06,3.71-2.73,5.27-4.45
		c2.23-2.45,4.41-4.95,6.75-7.29c2.94-2.93,6.23-5.43,10.39-6.33c2.68-0.58,5.4-0.91,8.12-1.16c2.67-0.25,5.38-0.31,8.03-0.67
		c0.41-0.05,0.81-0.11,1.21-0.18c0.13-0.02,0.28-0.08,0.28-0.21c0-0.07-0.06-0.13-0.12-0.17c-0.24-0.17-0.55-0.24-0.85-0.23
		c-6.58,0.22-12.58,0.2-17.81,1.31c-4.38,0.93-6.56,2.78-9.79,5.81c-0.87,0.82-1.71,1.68-2.52,2.56c-2.13,2.33-4.26,4.65-6.38,6.98
		c-0.98,1.08-2.13,1.92-3.4,2.62c-1.21,0.67-2.06,0.31-2.13-1.1c-0.13-2.74-0.56-5.48-0.07-8.24c0.57-3.22,1.2-6.42,2.36-9.5
		c2.26-6,8.89-9.32,14.97-9.88c4.91-0.46,9.98,0.42,14.79,1.31c4.44,0.82,8.83,1.96,13.11,3.41c2.02,0.68,3.95,1.37,5.75,2.53
		c1.86,1.21,3.54,2.66,5.31,3.99c0.8,0.6,1.57,1.24,2.3,1.91c0.18,0.16,0.29,0.6,0.2,0.81c-0.14,0.35-0.51,0.31-0.82,0.1
		c-1.61-1.1-3.5-1-5.3-1.18c-3.44-0.34-6.83,0.24-10.23,0.73c-3.31,0.48-6.41,1.58-9.52,2.68c-1.01,0.35-1.95,0.91-2.89,1.43
		C210.17,141.1,209.88,141.47,209.54,141.78z M246.6,189.16c0.05-0.03,0.1-0.06,0.14-0.09c-0.16-0.29-0.3-0.59-0.48-0.86
		c-1.97-3.02-4.27-5.78-6.89-8.24c-2.68-2.5-5.45-4.91-8.22-7.3c-2.81-2.43-6.22-3.3-9.82-3.57c-3.04-0.23-5.8,0.85-8.51,2.04
		c-0.95,0.42-1.02,1.12-0.14,1.67c0.6,0.37,1.3,0.6,1.98,0.79c2.41,0.68,4.83,1.34,7.26,1.96c5.34,1.36,10.3,3.53,14.86,6.65
		c1.74,1.19,3.59,2.23,5.34,3.42c1.28,0.87,2.48,1.86,3.71,2.81C246.1,188.66,246.34,188.92,246.6,189.16z M148.74,177.61
		c0.05,0.09,0.11,0.16,0.2,0.19c0.28,0.11,0.82-0.92,0.98-1.15c0.53-0.74,1.06-1.47,1.59-2.21c0.51-0.7,1.02-1.39,1.54-2.07
		c2.18-2.85,4.35-5.69,6.56-8.52c0.88-1.13,1.88-2.16,2.76-3.29c0.38-0.49,0.71-1.08,0.88-1.67c0.32-1.09-0.32-1.68-1.43-1.4
		c-1.5,0.39-2.78,1.19-3.91,2.21c-3.3,2.97-5.85,6.51-7.76,10.5c-0.6,1.25-1,2.58-1.23,3.95c-0.1,0.61-0.21,1.22-0.27,1.84
		C148.64,176.28,148.52,177.19,148.74,177.61z"/>
	<path class="st0" d="M125.49,83.67c1.79-2.4,3.48-4.67,5.19-6.97c0.16,0.01,0.32,0.01,0.47,0.04c1.84,0.33,3.68,0.73,5.53,1
		c3.2,0.47,5.29,0.32,9.64,1.9c0.49,0.17,7.38,3.4,7.69,2.87c0.25-0.43-6.21-3.78-8.67-4.52c-2.83-0.85-5.62-1.55-8.56-1.89
		c-1.15-0.13-2.29-0.3-3.44-0.48c-0.45-0.07-0.9-0.22-1.6-0.41c0.38-0.25,0.51-0.38,0.68-0.44c3.07-1.03,6.14-2.01,9.36-2.46
		c3.13-0.44,6.13,0.08,9.07,1.04c1.27,0.42,2.54,0.96,3.69,1.63c0.76,0.45,1.31,1.25,1.96,1.88c1.92,1.86,3.54,3.98,5.25,6.03
		c1.13,1.35,2.01,2.86,2.55,4.56c0.63,1.97,0.62,3.91-0.04,5.87c-0.37,1.09-0.61,2.23-0.85,3.35c-0.11,0.5,0.05,0.97,0.23,1.48
		c0.26,0.75,0.31,1.64,0.23,2.44c-0.11,1.06-0.41,2.11-0.68,3.15c-0.13,0.5-0.33,0.99-0.57,1.44c-1.37,2.47-2.77,4.94-4.17,7.39
		c-0.63,1.11-1.33,2.18-1.96,3.28c-0.18,0.32-0.3,0.72-0.31,1.09c-0.07,2.27-0.7,4.3-2.27,6.02c-0.78,0.85-1.36,1.87-2.12,2.74
		c-0.67,0.78-1.41,1.52-2.21,2.17c-2.33,1.87-4.74,3.65-7.07,5.51c-0.96,0.77-1.83,1.66-2.73,2.49c-0.18,0.16-0.32,0.37-0.51,0.49
		c-0.45,0.29-0.89,0.08-0.95-0.45c-0.02-0.19,0.02-0.4,0.04-0.6c0.22-1.98,0.4-3.97,0.66-5.95c0.3-2.2,0.28-4.38-0.09-6.56
		c-0.33-1.93-0.74-3.84-1.13-5.75c-0.22-1.06-0.54-2.09-0.7-3.15c-0.52-3.3-1.6-6.42-3.01-9.43c-0.93-1.99-2.25-3.67-4.06-4.92
		c-1.14-0.79-2.4-1.25-3.83-1.05c-0.98,0.14-1.17,0.32-1.11,1.32c0.12,1.91,0.72,3.72,1.81,5.25c2.22,3.11,3.68,6.51,4.32,10.26
		c0.45,2.63,0.88,5.27,1.28,7.91c0.47,3.12,0.9,6.24,1.31,9.37c0.12,0.95,0.17,1.91,0.16,2.87c-0.02,2.07-0.8,3.78-2.51,5.05
		c-2.53,1.88-5.22,3.35-8.44,3.69c-1.66,0.17-3.32,0.46-4.97,0.77c-0.98,0.18-1.93,0.5-2.89,0.77c-0.31,0.08-0.61,0.21-0.92,0.26
		c-0.76,0.11-1.07-0.28-0.8-0.97c0.1-0.26,0.24-0.51,0.39-0.74c1.34-2.13,2.04-4.45,2.41-6.95c0.7-4.74,1.04-9.52,1.49-14.28
		c0.36-3.88-0.45-7.47-2.44-10.77c-0.45-0.75-1.26-1.29-1.94-1.9c-1.11-0.99-3.27-0.16-3.74,1.29c-0.27,0.83-0.53,1.7-0.54,2.56
		c-0.06,3.03-0.1,6.06,0.01,9.09c0.08,2.11,0.42,4.21,0.63,6.31c0.05,0.52,0.12,1.04,0.09,1.55c-0.16,2.79-0.23,5.59-0.57,8.36
		c-0.16,1.31-0.67,2.65-1.32,3.81c-1.16,2.1-3.22,3.16-5.5,3.37c-3.33,0.3-6.7,0.26-10.02-0.32c-4.16-0.72-8.34-0.77-12.52-0.34
		c-0.55,0.06-1.11,0.15-1.64,0.3c-0.82,0.24-1.56,0.61-1.88,1.51c-0.12,0.34-0.33,0.7-0.78,0.57c-0.5-0.14-0.46-0.59-0.42-0.99
		c0.29-2.9-0.14-5.74-0.75-8.56c-0.45-2.1-1.08-4.17-1.64-6.25c-1.81-6.66-3.72-13.29-5.13-20.05c-0.38-1.84-0.66-3.71-0.19-5.58
		c0.62-2.42,2.17-4.07,4.55-4.81c1.52-0.48,3.09-0.83,4.66-1.09c4.72-0.79,9.45-1.52,14.18-2.24c1.14-0.17,2.31-0.2,3.46-0.31
		c2.14-0.22,4.29-0.45,6.43-0.68c0.23-0.03,0.48-0.08,0.69-0.18c0.95-0.47,0.99-1.2,0.11-1.82c-0.8-0.56-1.67-0.9-2.65-0.99
		c-1.59-0.14-3.18-0.27-4.76-0.52c-5.23-0.82-10.41-0.62-15.58,0.5c-2.46,0.53-4.94,0.93-7.42,1.37c-0.66,0.12-1.41,0.33-1.86-0.37
		c-0.46-0.72-0.06-1.39,0.36-1.99c1.28-1.85,2.24-3.83,2.9-6c0.69-2.25,1.51-4.45,2.4-6.63c0.91-2.24,2.59-3.5,5.1-3.4
		c0.87,0.04,1.76,0.08,2.61,0.27c3.32,0.74,6.67,1.14,10.06,1.37c2.7,0.18,5.38,0.68,8.05,1.09c2.8,0.42,5.59,0.94,8.39,1.33
		c0.94,0.13,1.91,0.07,2.86-0.01c0.86-0.07,1.29-0.84,0.98-1.66c-0.24-0.64-0.61-1.19-1.3-1.49c-2.08-0.91-4.11-1.96-6.22-2.75
		c-2.53-0.96-5.13-1.73-7.82-2.19c-2.24-0.38-4.46-0.89-6.69-1.32c-1.77-0.33-3.55-0.52-5.35-0.22c-1.85,0.3-3.54,0.94-5.01,2.11
		c-0.25,0.2-0.5,0.44-0.79,0.53c-0.26,0.08-0.7,0.09-0.85-0.06c-0.14-0.15-0.11-0.61,0.01-0.84c0.58-1.09,1.17-2.18,1.83-3.22
		c1.83-2.89,4.11-5.39,6.64-7.66c1.13-1.01,2.22-2.06,3.36-3.05c1.26-1.1,2.62-1.96,4.41-1.77c0.26,0.03,0.54-0.09,0.79-0.2
		c1.73-0.72,3.45-1.46,5.17-2.18c5.3-2.2,10.55-2.17,15.73,0.42c0.78,0.39,1.54,0.87,2.35,1.16c1.27,0.46,2.56,0.9,3.87,1.19
		c3.25,0.7,5.47,2.68,7.02,5.48c0.78,1.41,0.76,3.02,0.6,4.57c-0.14,1.34-0.51,2.66-0.75,3.99c-0.1,0.56-0.14,1.05-0.02,1.72
		c0.1,0.2-0.17,0.45-0.36,0.88c-0.39-0.45-0.67-0.76-0.93-1.08c-1.89-2.31-3.75-4.65-5.66-6.94c-1.15-1.38-2.65-2.29-4.3-2.94
		c-0.38-0.15-3.52-0.91-3.55-0.58c-0.02,0.21,2,1.06,2.57,1.5c1.68,0.97,2.75,1.89,3.93,3.02c0.6,0.58,1.09,1.26,1.62,1.91
		c1.41,1.73,2.82,3.45,4.21,5.19c0.35,0.43,0.65,0.9,1.03,1.44c-0.82,0.97-1.61,1.9-2.45,2.88c-2.27-0.27-4.38-1.28-6.36-2.56
		c-2.47-1.61-4.89-3.3-7.36-4.91c-4.22-2.76-8.65-4.97-13.86-4.98c-0.56,0-4.31,0.39-4.08,1.32c0.07,0.19,3.87,0.34,4.7,0.36
		c3.06,0.09,5.84,1.12,8.54,2.48c2.04,1.02,3.93,2.28,5.76,3.63c2.38,1.76,4.89,3.3,7.51,4.67c1.05,0.55,2.22,0.85,3.34,1.25
		c0.25,0.09,0.51,0.15,0.85,0.25c-2.21,3.18-4.38,6.26-6.88,9.12c-0.91-0.31-1.73-0.62-2.56-0.88c-7.05-2.24-14.23-3.57-21.67-3.08
		c-0.79,0.05-1.59,0.17-2.37,0.32c-0.5,0.1-4.27,1.04-4.19,1.64c0.05,0.44,2.95-0.59,4.72-0.66c5.06-0.32,10.03,0.34,15.12,1.35
		c3.01,0.6,6.03,1.16,8.9,2.3c0.25,0.1,0.51,0.2,0.92,0.35c-0.29,0.41-0.51,0.77-0.78,1.08c-1.37,1.56-2.78,3.09-4.12,4.67
		c-1.63,1.91-3.21,3.87-4.81,5.81c-0.36,0.43-0.69,0.88-1.06,1.3c-4.32,4.93-8.19,10.22-12.14,15.43c-1.54,2.03-3.17,3.99-4.57,6.12
		c-1.75,2.66-3.2,5.51-4.31,8.49c-0.12,0.33-0.25,0.67-0.29,1.03c-0.01,0.1-0.01,0.22,0.08,0.27c0.11,0.07,0.25-0.05,0.33-0.15
		c1.6-2.03,2.8-4.29,4.15-6.48c1.37-2.21,2.89-4.33,4.54-6.33c1.54-1.86,2.87-3.9,4.34-5.82c2.11-2.76,4.24-5.5,6.41-8.21
		c2.37-2.96,4.79-5.88,7.22-8.79c1.04-1.25,2.16-2.44,3.3-3.72c0.21,0.23,0.36,0.35,0.45,0.51c1.14,2.15,2.34,4.26,3.38,6.46
		c2.21,4.67,3.26,9.77,3.67,14.89c0.22,2.78,0.63,5.06,0.86,7.84c0.09,1.11-0.07,2.73,0.07,3.84c0.08,0.62,0.08,1.33,0.29,1.92
		c0.02,0.06,0.06,0.3,0.15,0.3c0.28,0.01,0.56-5.05,0.58-5.49c0.24-4.81-0.2-9.76-1.07-14.49c-1.1-5.96-3.56-11.39-6.77-16.5
		c-0.1-0.17-0.2-0.33-0.36-0.59c2.62-3.3,5.23-6.59,7.81-9.84c2.29,2.31,4.58,4.53,6.78,6.83c3.07,3.21,5.87,6.61,7.86,10.63
		c1.54,3.1,3.41,6.07,4.85,9.24c0.07,0.15,0.14,0.3,0.2,0.45c0.3,0.66,0.62,1.31,0.95,1.96c0.16,0.31,0.33,0.61,0.55,0.88
		c0.07-0.18,0.03-0.38-0.01-0.57c-0.28-1.29-0.56-2.58-0.88-3.86c-0.37-1.45-0.83-2.82-1.6-4.1c-0.83-1.39-1.54-2.85-2.33-4.26
		c-0.89-1.59-1.81-3.18-2.78-4.72c-1.81-2.86-4.08-5.39-6.56-7.74c-1.8-1.7-3.48-3.52-5.19-5.3
		C125.95,84.46,125.76,84.06,125.49,83.67z M148.44,104.35c0.05-0.05,0.11-0.1,0.16-0.15c-0.03-0.11-0.04-0.22-0.09-0.32
		c-1.69-3.8-3.87-7.3-6.32-10.65c-1.06-1.44-2.25-2.68-3.82-3.53c-0.28-0.15-0.57-0.31-0.87-0.38c-0.97-0.22-1.54,0.31-1.25,1.25
		c0.18,0.59,0.5,1.18,0.91,1.65c1.74,1.96,3.52,3.9,5.32,5.81c1.61,1.71,3.26,3.38,4.88,5.08
		C147.74,103.5,148.08,103.94,148.44,104.35z M161.55,96.11c-0.23-1.4-0.71-2.61-1.29-3.78c-1.04-2.1-2.71-3.58-4.72-4.75
		c-2.09-1.21-4.45-1.69-6.66-2.58c-0.07-0.03-1-0.3-0.44,0.15c0.49,0.42,0.88,0.82,1.33,1.12c2.87,1.91,5.31,4.29,7.54,6.91
		C158.4,94.46,159.77,95.54,161.55,96.11z M99.23,60.18c0.13,0.08,0.25,0.17,0.38,0.25c2.05,1.15,4.12,2.25,6.14,3.46
		c2.74,1.65,5.61,3.01,8.61,4.12c0.41,0.15,0.87,0.45,1.46,0c-1-1.58-2.66-2.36-4.07-3.37C108.02,61.96,103.84,60.46,99.23,60.18z
		 M129.93,85.22c0.59,0.31,1.17,0.65,1.78,0.92c0.66,0.29,1.33,0.18,1.95-0.15c0.63-0.33,0.77-0.6,0.47-1.25
		c-0.42-0.9-0.84-1.81-1.4-2.62c-0.46-0.67-1.07-1.27-1.69-1.81c-0.61-0.52-1.5-0.45-2.1,0.02c-0.5,0.38-0.92,1.46-0.72,2.01
		C128.59,83.41,129.09,84.4,129.93,85.22z M129.23,95.47c0.09-0.08,0.18-0.16,0.26-0.24c-0.1-0.45-0.13-0.93-0.32-1.33
		c-0.7-1.42-1.43-2.83-2.21-4.21c-0.27-0.47-0.7-0.85-1.07-1.27c-0.59-0.66-1.39-0.53-2.12-0.49c-0.49,0.02-0.83,0.57-0.68,1.07
		c0.21,0.68,0.45,1.37,0.83,1.96c1.13,1.77,2.7,3.12,4.49,4.2C128.65,95.32,128.95,95.37,129.23,95.47z"/>
	<path class="st0" d="M114.29,214.76c-0.04,0-0.93,2.9-1.03,3.17c-0.4,1.08-0.87,2.13-1.41,3.15c-1.53,2.86-3.67,5.91-6.55,7.53
		c-1.69,0.95-3.38,1.9-5.06,2.86c0.39-0.22,1.05-0.25,1.49-0.37c0.56-0.16,1.12-0.33,1.68-0.52c1.04-0.35,2.06-0.73,3.09-1.12
		c0.76-0.28,1.43-0.67,2.04-1.21c0.58-0.52,1.08-1.12,1.56-1.74c1.66-2.13,3.27-4.29,4.25-6.83c0.37-0.97,0.69-1.96,1.03-2.93
		c0.11-0.32,0.24-0.65,0.44-1.18c0.69,0.95,1.33,1.7,1.83,2.54c1.05,1.78,2.04,3.61,3.04,5.42c1.2,2.15,1.94,4.46,2.18,6.91
		c0.08,0.82,0.07,1.71-0.16,2.49c-0.69,2.41-1.83,4.65-3.62,6.39c-2.85,2.76-6.27,4.11-10.32,3.75c-2.88-0.26-5.72-0.76-8.38-1.8
		c-2.92-1.14-5.76-2.54-8.56-3.97c-2.02-1.03-3.96-2.23-5.88-3.45c-2.22-1.41-4.31-3.02-6.13-4.95c-0.32-0.34-0.61-0.69-0.34-1.16
		c0.27-0.48,0.75-0.42,1.17-0.26c1.78,0.67,3.62,0.55,5.45,0.43c3.51-0.22,6.96-0.79,10.34-1.81c2.82-0.85,5.43-2.08,7.75-3.9
		c0.09-0.07,0.19-0.14,0.28-0.22c0.33-0.29,0.72-0.61,0.47-1.1c-0.22-0.45-0.67-0.36-1.06-0.27c-2.45,0.56-4.91,1.05-7.33,1.7
		c-3.33,0.89-6.7,1.46-10.14,1.52c-1.79,0.03-3.58,0.01-5.37,0.04c-2.06,0.04-3.71-0.87-5.11-2.25c-0.67-0.66-1.28-1.44-1.74-2.27
		c-1.83-3.27-3.58-6.59-5.36-9.88c-0.08-0.14-0.14-0.29-0.21-0.43c-0.19-0.38-0.28-0.77,0.05-1.11c0.37-0.39,0.81-0.28,1.21-0.07
		c0.46,0.24,0.93,0.47,1.34,0.78c1.93,1.42,4.15,2.01,6.47,2.26c3.25,0.34,6.51,0.61,9.76,0.96c1.26,0.14,2.51,0.4,3.76,0.65
		c2.62,0.52,4.97-0.32,7.24-1.47c0.25-0.13,0.53-0.58,0.48-0.83c-0.05-0.27-0.43-0.63-0.71-0.67c-0.94-0.15-1.9-0.21-2.85-0.23
		c-1.59-0.03-3.19,0.01-4.78,0.02c-1.2,0.01-2.39-0.04-3.58,0.04c-2.2,0.14-4.38,0.05-6.55-0.37c-1.6-0.31-3.27-0.34-4.83-0.77
		c-1.91-0.52-3.75-1.3-5.61-2.02c-0.71-0.27-1.12-0.91-1.32-1.62c-0.26-0.92-0.47-1.85-0.69-2.78c-0.32-1.36-0.64-2.71-0.95-4.07
		c-0.27-1.17-0.52-2.33-0.77-3.5c-0.06-0.27-0.1-0.55-0.11-0.83c-0.01-0.56-0.04-1.17,0.61-1.42c0.58-0.23,0.99,0.12,1.36,0.51
		c3.3,3.61,7.59,5.3,12.25,6.24c3.28,0.66,6.57,1.28,9.88,1.76c1.75,0.25,3.55,0.63,5.37,0.04c-0.17-0.55-0.65-0.54-1.04-0.64
		c-1.97-0.49-3.95-0.95-5.91-1.46c-2.39-0.63-4.77-1.26-7.14-1.96c-2.73-0.8-5.23-2.14-7.77-3.39c-1.14-0.56-2.28-1.16-3.37-1.81
		c-1.73-1.03-2.12-1.98-1.62-3.91c0.66-2.51,1.35-5,2.05-7.49c0.18-0.65,0.42-1.3,0.73-1.89c0.78-1.48,2.02-1.57,2.98-0.21
		c0.39,0.55,0.72,1.15,1.02,1.76c1.02,2.03,2.37,3.72,4.38,4.93c2.21,1.34,4.22,3.03,6.67,3.96c0.97,0.37,1.96,0.66,2.96,0.92
		c0.57,0.15,1.17,0.14,1.76-0.09c0-0.58-0.4-0.72-0.72-0.92c-2.44-1.51-4.9-3-7.31-4.56c-0.83-0.54-1.56-1.23-2.31-1.88
		c-1.08-0.94-2.19-1.86-3.18-2.89c-0.59-0.62-1.08-1.39-1.44-2.17c-0.57-1.22-0.54-2.53,0.2-3.67c0.67-1.03,1.43-2.02,2.27-2.91
		c0.95-1.02,2.09-1.86,3.06-2.86c0.71-0.74,1.33-1.58,1.91-2.42c0.58-0.86,1.1-0.99,1.79-0.18c1.13,1.32,2.58,1.84,4.25,1.82
		c1.35-0.02,2.72-0.06,4.05-0.28c2.44-0.39,4.76-0.05,7.05,0.76c0.91,0.32,1.56,0.93,2.06,1.74c1.06,1.7,1.48,3.6,1.82,5.53
		c0.71,3.99,0.81,8.01,0.52,12.05c-0.06,0.78-0.01,1.56-0.01,2.61c0.83-0.74,1.32-1.37,1.44-2.23c0.69-4.95,0.73-9.87-1-14.66
		c-0.39-1.08-0.94-2.11-1.42-3.16c-0.13-0.29-0.37-0.55-0.42-0.85c-0.05-0.32-0.05-0.78,0.14-0.97c0.19-0.2,0.71-0.3,0.96-0.18
		c0.85,0.42,1.65,0.95,2.47,1.43c0.75,0.44,1.47,0.94,2.26,1.28c2.29,1,3.8,2.62,4.18,5.12c0.54,3.57,0.58,7.14,0.19,10.74
		c-0.29,2.73-0.33,5.5-0.45,8.25c-0.02,0.49,0.12,0.98,0.39,1.48c0.12-0.24,0.28-0.47,0.36-0.72c1.33-4.36,2.37-8.78,2.27-13.39
		c-0.05-2.21-0.32-4.38-1-6.48c-0.28-0.86-0.75-1.67-1.16-2.49c-0.21-0.42-0.34-0.83,0.02-1.21c0.35-0.36,0.8-0.36,1.21-0.11
		c0.51,0.31,1.05,0.6,1.47,1.02c1.55,1.53,3.34,2.69,5.32,3.61c1.53,0.71,2.87,1.74,3.96,3.04c1.61,1.91,1.98,4.21,1.96,6.62
		c-0.03,3.77-1.25,7.11-3.49,10.11c-1.22,1.63-2.42,3.27-4,4.59c-0.95,0.79-1.58,1.8-1.61,3.09c-0.02,0.91,0.22,1.12,1.07,0.84
		c1.3-0.42,2.49-0.99,3.35-2.16c2.18-2.97,4.24-6.01,5.16-9.64c0.34-1.34,0.49-2.74,0.66-4.12c0.14-1.15,0.2-2.31,0.27-3.46
		c0.03-0.51,0.15-0.98,0.68-1.15c0.55-0.18,0.91,0.19,1.21,0.57c0.33,0.4,0.6,0.85,0.93,1.25c0.3,0.36,0.62,0.72,0.99,1.02
		c2.38,1.96,4.32,4.23,5.32,7.21c0.95,2.84,2.01,5.64,2.85,8.51c0.86,2.94,1.02,5.97,0.48,9.01c-0.34,1.93-0.78,3.82-1.57,5.63
		c-1.31,3.02-3.36,5.28-6.35,6.71c-2.3,1.1-4.47,1.18-6.88,0.07c-2.61-1.21-4.84-2.94-7.15-4.55c-1.36-0.95-2.21-2.45-3.16-3.99
		c0.49-0.06,0.83-0.13,1.17-0.14c1.36-0.02,2.71-0.04,4.07-0.02c2.08,0.04,4.14-0.07,6.19-0.46c2.89-0.55,5.24-1.7,6.98-4.14
		c0.67-0.95,1.22-1.97,1.75-3c0.24-0.45,0.56-0.81,0.8-1.26c0.12-0.23,0.24-0.47,0.33-0.72c0.05-0.15,0.08-0.67,0.17-0.76
		c-1.23,1.2-2.15,2.68-3.21,4.04c-1.16,1.5-2.47,2.64-4.25,3.34c-1.99,0.79-4.1,1.11-6.23,1.22c-1.35,0.07-2.72-0.02-4.07,0.02
		c-1.31,0.04-2.64,0.09-3.94,0.26c-0.74,0.1-1.21-0.08-1.61-0.68c-0.46-0.7-0.94-1.39-1.46-2.05c-0.99-1.25-0.93-2.58-0.31-3.92
		c0.74-1.59,1.51-3.17,2.32-4.73c1.18-2.27,2.33-4.55,3.61-6.75c3.05-5.22,3.22-11.32,0.77-16.79c-0.11-0.24-0.61-1.61-1.04-1.46
		c-0.63,0.22,0.53,4.16,0.66,4.67c0.66,2.79,0.69,5.8-0.1,8.57c-0.4,1.4-1.04,2.76-1.7,4.07c-1.84,3.67-3.75,7.31-5.62,10.97
		c-0.31,0.6-0.57,1.23-0.89,1.94c-0.19-0.21-0.39-0.37-0.52-0.57c-0.89-1.28-1.7-2.61-2.67-3.83c-0.83-1.05-0.74-2.1-0.37-3.25
		c0.43-1.32,0.82-2.66,1.28-3.98c2.16-6.25,2.37-13.26,0.6-19.62c-0.06-0.22-0.97-3.34-1.25-3.19c-0.33,0.18,0.06,2.23,0.08,2.51
		c0.16,1.68,0.33,3.36,0.53,5.03c0.73,6.24-0.67,12.22-2.56,18.13c-0.08,0.26-0.23,0.49-0.36,0.76c-0.14-0.12-0.25-0.19-0.31-0.28
		c-1.84-2.71-3.65-5.43-5.51-8.12c-0.61-0.88-0.67-1.7-0.27-2.68c1.81-4.46,0.92-7.19-0.55-12.17c-0.11-0.38-1.12-3.37-1.59-2.95
		c-0.21,0.19,1.68,6.22,1.95,8.31c0.25,1.97-0.46,4.43-1.44,6.31c-2.6-3.83-4.84-8.21-8.17-11.45c-0.99-0.96-1.93-1.96-3.04-2.79
		c-0.11,0.3,0.02,0.62,0.15,0.91c1.06,2.21,2.7,4.06,4.18,5.99c1.6,2.08,2.86,4.4,4.33,6.57c1.79,2.64,3.51,5.33,5.25,8
		c0.06,0.1,0.09,0.21,0.2,0.5c-0.85-0.06-1.62-0.1-2.38-0.17c-2.94-0.25-5.88-0.49-8.81-0.77c-2.53-0.25-4.79-1.5-6.98-2.7
		c-1.93-1.07-3.92-2.18-6.05-2.79c-0.11-0.03-0.25-0.05-0.31,0.05c-0.06,0.1,0.03,0.23,0.12,0.31c2.26,2.12,4.89,3.83,7.74,5.05
		c1.44,0.62,2.92,1.11,4.45,1.48c1.54,0.37,3.01,0.44,4.56,0.59c1.63,0.15,3.27,0.29,4.9,0.43c1.07,0.09,2.15,0.12,3.23,0.17
		c0.46,0.02,0.82,0.15,1.1,0.58c1.55,2.41,3.12,4.8,4.79,7.36c-0.55,0.05-0.93,0.1-1.3,0.12c-2.99,0.15-5.97,0.32-8.96,0.45
		c-2.66,0.12-5.3,0.15-7.89-0.48c-2.2-0.53-4.4-1.06-6.61-1.59c-0.54-0.13-4.34-1.32-4.61-0.48c-0.17,0.54,6.87,2.72,7.54,2.9
		c4.19,1.14,8.6,1.65,12.93,1.22c3.06-0.31,6.12-0.47,9.2-0.39c0.49,0.01,0.95,0.06,1.27,0.52c1.37,1.96,2.74,3.91,4.26,6.08
		c-0.61,0.02-1.02,0.07-1.43,0.04c-2.32-0.15-4.49,0.41-6.68,1.12c-2.87,0.93-5.77,1.93-8.76,2.43c-1.64,0.28-3.3,0.42-4.96,0.42
		c-1.57,0.01-3.13-0.22-4.69-0.27c-1.16-0.04-2.32-0.11-3.48-0.12c-0.34-0.01-1.82-0.21-2.06,0.11c-0.13,0.17,1.73,0.66,1.86,0.69
		c1.15,0.28,2.31,0.53,3.47,0.74c3.41,0.62,6.76,0.8,10.18,0.05c3.22-0.7,6.48-1.7,9.61-2.72
		C109.28,214.75,111.69,214.52,114.29,214.76z"/>
</g>
</svg>
